<svg id="visual" viewBox="0 0 900 450" width="900" height="450" xmlns="http://www.w3.org/2000/svg" xmlns:xlink="http://www.w3.org/1999/xlink" version="1.1"><path d="M0 96L82 123L164 141L245 136L327 172L409 145L491 123L573 82L655 204L736 177L818 109L900 199L900 0L818 0L736 0L655 0L573 0L491 0L409 0L327 0L245 0L164 0L82 0L0 0Z" fill="#28323c"></path><path d="M0 145L82 159L164 177L245 195L327 204L409 190L491 172L573 127L655 244L736 240L818 168L900 231L900 197L818 107L736 175L655 202L573 80L491 121L409 143L327 170L245 134L164 139L82 121L0 94Z" fill="#265264"></path><path d="M0 231L82 208L164 285L245 271L327 312L409 280L491 271L573 222L655 298L736 343L818 240L900 285L900 229L818 166L736 238L655 242L573 125L491 170L409 188L327 202L245 193L164 175L82 157L0 143Z" fill="#007683"></path><path d="M0 375L82 375L164 420L245 420L327 411L409 397L491 406L573 415L655 388L736 415L818 384L900 366L900 283L818 238L736 341L655 296L573 220L491 269L409 278L327 310L245 269L164 283L82 206L0 229Z" fill="#009b90"></path><path d="M0 451L82 451L164 451L245 451L327 451L409 451L491 451L573 451L655 451L736 451L818 451L900 451L900 364L818 382L736 413L655 386L573 413L491 404L409 395L327 409L245 418L164 418L82 373L0 373Z" fill="#00be82"></path></svg>