<svg id="visual" viewBox="0 0 960 540" width="960" height="540" xmlns="http://www.w3.org/2000/svg" xmlns:xlink="http://www.w3.org/1999/xlink" version="1.1"><rect x="0" y="0" width="960" height="540" fill="#e3e3e3"></rect><g transform="translate(490.9282919213463 270.8501179489592)"><path d="M94.3 -128.6C122.3 -109.4 145.3 -82 165.4 -47.4C185.5 -12.7 202.6 29.4 187.7 56.7C172.9 84 126.1 96.6 89.5 111C52.9 125.5 26.5 141.7 -8.7 153.7C-43.9 165.7 -87.8 173.5 -130.6 161.1C-173.4 148.6 -215.1 116 -215.2 78.7C-215.3 41.3 -173.7 -0.8 -152 -43.7C-130.3 -86.6 -128.3 -130.3 -106.3 -151.5C-84.2 -172.6 -42.1 -171.3 -4.5 -165.1C33.1 -158.9 66.2 -147.8 94.3 -128.6" fill="#DAF0E4"></path></g></svg>